# xmcd
#
# Track frame offsets:
#  150
#  8226
#  15419
#  22104
#  32677
#  40908
#  50672
#  65774
#  79998
#  96365
#  103433
#  116431
#  123703
#  135086
#
# Disc length: 1896 seconds
#
# Revision: 0
# Processed by: cddbd v1.5.1PL2 Copyright (c) Steve Scherf et al.
# Submitted via: Collectorz.com_Music_Collector 6.9
#
DISCID=be07660e
DTITLE=Maxwell, Rodger - Son Of A Cowboy Singer
DYEAR=2003
DGENRE=
TTITLE0=Son of a Cowboy Singer
TTITLE1=Bury Me Not On The Lone Prairie
TTITLE2=Trailin'
TTITLE3=Cowboy's Letter From Home
TTITLE4=John's Ride
TTITLE5=Blue River Cowboy
TTITLE6=Adios Querida
TTITLE7=Brazos River
TTITLE8=Never Start
TTITLE9=Triangel Bill
TTITLE10=Santa Fe Trail
TTITLE11=Tombstone Miner
TTITLE12=Rosin The Beau
TTITLE13=Absolutely Nothing
EXTD=
EXTT0=
EXTT1=
EXTT2=
EXTT3=
EXTT4=
EXTT5=
EXTT6=
EXTT7=
EXTT8=
EXTT9=
EXTT10=
EXTT11=
EXTT12=
EXTT13=
PLAYORDER=
